<svg version="1.1" xmlns="http://www.w3.org/2000/svg" viewBox="0 0 744.0025703576207 369.4158964923024" width="744.0025703576207" height="369.4158964923024">
  <!-- svg-source:excalidraw -->
  
  <defs>
    <style class="style-fonts">
      @font-face {
        font-family: "Virgil";
        src: url("https://excalidraw.com/Virgil.woff2");
      }
      @font-face {
        font-family: "Cascadia";
        src: url("https://excalidraw.com/Cascadia.woff2");
      }
    </style>
  </defs>
  <g stroke-linecap="round" transform="translate(144.0025703576207 83) rotate(0 18.5 17.5)"><path d="M23.41 0.46 C27.1 1.17, 31.77 4.26, 33.99 7.55 C36.2 10.83, 37.36 16.29, 36.7 20.18 C36.04 24.07, 32.92 28.43, 30.04 30.88 C27.16 33.33, 23.35 34.99, 19.43 34.88 C15.52 34.77, 9.72 32.44, 6.55 30.23 C3.38 28.03, 1.26 25.11, 0.4 21.66 C-0.47 18.22, -0.48 13.07, 1.34 9.55 C3.16 6.02, 7.25 1.94, 11.32 0.52 C15.4 -0.9, 23.21 0.7, 25.78 1.03 C28.35 1.35, 26.98 2.11, 26.75 2.47 M9.5 2.37 C12.41 0.1, 17.37 -1.67, 21.53 -0.84 C25.69 -0.02, 31.96 4.15, 34.47 7.31 C36.98 10.48, 37.08 14.64, 36.6 18.13 C36.13 21.62, 34.45 25.58, 31.62 28.26 C28.8 30.93, 23.6 33.7, 19.67 34.17 C15.73 34.65, 11.15 33.27, 8.02 31.1 C4.9 28.93, 1.83 24.8, 0.92 21.17 C0.02 17.54, 0.93 12.48, 2.59 9.32 C4.25 6.16, 9.52 3.62, 10.88 2.2 C12.24 0.78, 10.72 0.81, 10.74 0.8" stroke="#000000" stroke-width="1" fill="none"></path></g><g stroke-linecap="round" transform="translate(230.0025703576207 224) rotate(31.96134341697702 11.5 29.5)"><path d="M5.75 0 M5.75 0 C9.53 0.02, 12.16 -0.98, 17.25 0 M5.75 0 C9.98 -0.26, 12.96 -0.03, 17.25 0 M17.25 0 C21.59 -1.51, 22.43 0.3, 23 5.75 M17.25 0 C20.42 0.84, 21.45 0.29, 23 5.75 M23 5.75 C23.05 19.41, 22.65 27.53, 23 53.25 M23 5.75 C22.93 21.13, 22 34.91, 23 53.25 M23 53.25 C21.29 56.26, 19.87 60.62, 17.25 59 M23 53.25 C22.17 54.94, 19.03 57.28, 17.25 59 M17.25 59 C14.68 58.76, 10.67 58.03, 5.75 59 M17.25 59 C12.99 58.83, 7.66 58.47, 5.75 59 M5.75 59 C1.41 60.2, 0.27 56.13, 0 53.25 M5.75 59 C1.12 58.51, 0.19 58.79, 0 53.25 M0 53.25 C-0.73 37.9, 1.71 21.43, 0 5.75 M0 53.25 C-0.3 36.92, 1.15 21.53, 0 5.75 M0 5.75 C0.15 1.41, 1.36 0.84, 5.75 0 M0 5.75 C1.77 0.23, 4.15 -1.87, 5.75 0" stroke="#000000" stroke-width="1" fill="none"></path></g><g stroke-linecap="round" transform="translate(256.5025703576208 221.49999999999977) rotate(329.1842942482706 11.5 29.5)"><path d="M5.75 0 M5.75 0 C7.72 0.42, 12.4 0.69, 17.25 0 M5.75 0 C9.85 -0.37, 13.49 0.35, 17.25 0 M17.25 0 C21.42 0.05, 21.87 3.45, 23 5.75 M17.25 0 C19.45 0, 25.05 1.97, 23 5.75 M23 5.75 C21.11 13.57, 22.17 26.41, 23 53.25 M23 5.75 C23.53 23.84, 23.61 40.03, 23 53.25 M23 53.25 C21.81 55.71, 22.89 60.58, 17.25 59 M23 53.25 C25.04 55.71, 22.46 61.03, 17.25 59 M17.25 59 C12.7 59.15, 9.79 59.07, 5.75 59 M17.25 59 C14.78 58.73, 11.24 59.01, 5.75 59 M5.75 59 C2.09 60.76, 1.12 55.5, 0 53.25 M5.75 59 C2.86 57.86, -1.46 54.85, 0 53.25 M0 53.25 C0.17 36.31, 1.49 22.95, 0 5.75 M0 53.25 C-0.49 40.43, -0.51 26.88, 0 5.75 M0 5.75 C-0.46 1.26, 2.27 -1.68, 5.75 0 M0 5.75 C-1.61 1.16, 3.68 -2.15, 5.75 0" stroke="#000000" stroke-width="1" fill="none"></path></g><g stroke-linecap="round"><g transform="translate(163.0025703576207 100) rotate(0 45.11833007617855 65.35067044207824)"><path d="M-0.55 -0.45 C14.12 21.56, 73.48 109.12, 88.39 131.27 M1.36 -1.73 C16.4 20.48, 76.33 110.42, 90.79 132.43" stroke="#000000" stroke-width="1" fill="none"></path></g></g><mask></mask><g stroke-linecap="round"><g transform="translate(345.8842402814421 99.64932955792165) rotate(0 -46.60804928345607 65.95303829265754)"><path d="M0.26 -0.78 C-15.27 21.11, -76.97 109.11, -92.69 131.1 M-1.06 1.42 C-16.76 23.54, -78.36 110.83, -93.48 132.69" stroke="#000000" stroke-width="1" fill="none"></path></g></g><mask></mask><g transform="translate(267.0025703576207 150) rotate(0 17 13)"><text x="0" y="18" font-family="Virgil, Segoe UI Emoji" font-size="20px" fill="#000000" text-anchor="start" style="white-space: pre;" direction="ltr">45°</text></g><g transform="translate(152.0025703576207 145) rotate(0 20.5 13)"><text x="0" y="18" font-family="Virgil, Segoe UI Emoji" font-size="20px" fill="#000000" text-anchor="start" style="white-space: pre;" direction="ltr">135°</text></g><g transform="translate(91.0025703576207 53) rotate(0 39.5 13)"><text x="0" y="18" font-family="Virgil, Segoe UI Emoji" font-size="20px" fill="#000000" text-anchor="start" style="white-space: pre;" direction="ltr">source 1</text></g><g transform="translate(543.0025703576207 101) rotate(0 95.5 104)"><text x="0" y="18" font-family="Virgil, Segoe UI Emoji" font-size="20px" fill="#000000" text-anchor="start" style="white-space: pre;" direction="ltr">Diffusion </text><text x="0" y="44" font-family="Virgil, Segoe UI Emoji" font-size="20px" fill="#000000" text-anchor="start" style="white-space: pre;" direction="ltr">dans un milieu</text><text x="0" y="70" font-family="Virgil, Segoe UI Emoji" font-size="20px" fill="#000000" text-anchor="start" style="white-space: pre;" direction="ltr">réverbéré </text><text x="0" y="96" font-family="Virgil, Segoe UI Emoji" font-size="20px" fill="#000000" text-anchor="start" style="white-space: pre;" direction="ltr"></text><text x="0" y="122" font-family="Virgil, Segoe UI Emoji" font-size="20px" fill="#000000" text-anchor="start" style="white-space: pre;" direction="ltr">(Non pris en compte</text><text x="0" y="148" font-family="Virgil, Segoe UI Emoji" font-size="20px" fill="#000000" text-anchor="start" style="white-space: pre;" direction="ltr">par le modèle)</text><text x="0" y="174" font-family="Virgil, Segoe UI Emoji" font-size="20px" fill="#000000" text-anchor="start" style="white-space: pre;" direction="ltr"></text><text x="0" y="200" font-family="Virgil, Segoe UI Emoji" font-size="20px" fill="#000000" text-anchor="start" style="white-space: pre;" direction="ltr"></text></g><g stroke-opacity="0.3" fill-opacity="0.3" stroke-linecap="round" transform="translate(11.002570357620698 10) rotate(0 242.5 173)"><path d="M7.86 8.16 C7.86 8.16, 7.86 8.16, 7.86 8.16 M7.86 8.16 C7.86 8.16, 7.86 8.16, 7.86 8.16 M3.66 19.09 C6.54 11.35, 13.54 8.24, 18.1 2.48 M3.66 19.09 C8.27 17.2, 11.61 12.35, 18.1 2.48 M2.75 26.24 C7.06 16.17, 16.48 6.48, 24.4 1.33 M2.75 26.24 C8.94 19.19, 13.32 12.56, 24.4 1.33 M1.83 33.39 C12.09 19.6, 23.41 6.9, 30.7 0.18 M1.83 33.39 C12.21 24.49, 20.92 11.3, 30.7 0.18 M1.57 39.79 C6.21 31.46, 17.7 22.44, 34.37 2.05 M1.57 39.79 C14.11 28.12, 24.85 11.45, 34.37 2.05 M1.96 45.43 C8.59 39.78, 18.53 30.4, 39.36 2.41 M1.96 45.43 C12.94 31.16, 25.46 19.61, 39.36 2.41 M1.7 51.83 C16.43 38.53, 29.5 22.37, 45 2.02 M1.7 51.83 C18.7 34.93, 30.73 18.35, 45 2.02 M1.44 58.23 C9.82 44.4, 23.58 27.35, 49.99 2.38 M1.44 58.23 C19.53 38.71, 39.36 17.96, 49.99 2.38 M1.83 63.87 C19.02 44.1, 38.94 21.87, 55.63 1.98 M1.83 63.87 C18.74 44.98, 33.44 29.15, 55.63 1.98 M1.57 70.27 C16.72 54.16, 30.93 41.78, 60.62 2.34 M1.57 70.27 C16.97 52.6, 29.6 37.04, 60.62 2.34 M1.97 75.91 C23.61 53.81, 42.36 29.42, 66.26 1.95 M1.97 75.91 C27.08 47.32, 52.98 17.59, 66.26 1.95 M1.71 82.31 C28.38 49.57, 57.04 24.68, 71.25 2.31 M1.71 82.31 C16.62 63.8, 33.3 49.28, 71.25 2.31 M1.44 88.71 C24.83 62.22, 42.04 45.63, 76.89 1.91 M1.44 88.71 C27.87 60.09, 51.38 31.7, 76.89 1.91 M1.84 94.35 C32.97 61.9, 57.99 31.9, 81.88 2.27 M1.84 94.35 C27.9 60.71, 58.51 28.32, 81.88 2.27 M1.58 100.75 C39.29 60.52, 66.52 20.17, 87.52 1.88 M1.58 100.75 C25.73 70.2, 50.54 40.93, 87.52 1.88 M1.97 106.39 C31.66 75.89, 49.78 46.18, 92.51 2.24 M1.97 106.39 C27.6 79.51, 52.46 49.85, 92.51 2.24 M1.71 112.79 C40.79 70.61, 74.14 24.15, 98.15 1.85 M1.71 112.79 C26.02 87.46, 46.82 62.18, 98.15 1.85 M1.45 119.19 C39.93 77.27, 69.35 34.04, 103.14 2.21 M1.45 119.19 C33.97 78.66, 69.46 40.62, 103.14 2.21 M1.84 124.83 C31.77 80.81, 68.17 41.7, 108.78 1.81 M1.84 124.83 C30.81 91.21, 62.67 56.86, 108.78 1.81 M1.58 131.23 C31.74 99.25, 61.94 60.19, 113.77 2.17 M1.58 131.23 C30.26 100.27, 56.6 68.44, 113.77 2.17 M1.98 136.87 C32.52 102.31, 68 65.53, 119.41 1.78 M1.98 136.87 C28.72 106.79, 56.07 74.01, 119.41 1.78 M1.72 143.27 C45.64 93.65, 84.85 49.35, 124.4 2.14 M1.72 143.27 C46.06 94.68, 90.87 44.3, 124.4 2.14 M1.45 149.67 C47.84 89.21, 95.08 35.94, 130.04 1.74 M1.45 149.67 C36.67 107.74, 74.41 66.54, 130.04 1.74 M1.85 155.31 C55.29 93.58, 105.85 40.97, 135.03 2.1 M1.85 155.31 C37.53 114.71, 73.52 75.73, 135.03 2.1 M1.59 161.71 C43.73 109.19, 90.55 56.52, 140.67 1.71 M1.59 161.71 C54.81 101.97, 104.22 41.98, 140.67 1.71 M1.98 167.35 C37.53 127.13, 77.3 81.58, 145.66 2.07 M1.98 167.35 C60.7 103.84, 115.46 37.53, 145.66 2.07 M1.72 173.75 C42.79 124.54, 84.98 83.19, 150.65 2.43 M1.72 173.75 C54.76 115.31, 104.58 55.13, 150.65 2.43 M1.46 180.14 C54.76 119.72, 97.31 66.45, 156.29 2.03 M1.46 180.14 C44.54 132.11, 88.47 81.66, 156.29 2.03 M1.85 185.79 C58.53 119.28, 115.34 50.54, 161.28 2.39 M1.85 185.79 C62.45 116.92, 121.18 52.1, 161.28 2.39 M1.59 192.19 C64.91 125.09, 117.86 56.55, 166.92 2 M1.59 192.19 C44.38 139.24, 90.65 88.19, 166.92 2 M1.99 197.83 C34.83 155.53, 68.12 112.79, 171.91 2.36 M1.99 197.83 C48.46 142.9, 97.63 87.66, 171.91 2.36 M1.72 204.23 C38.32 157.64, 83.33 106.9, 177.55 1.96 M1.72 204.23 C37.22 156.09, 78.31 113.15, 177.55 1.96 M1.46 210.62 C66.33 135.06, 130.25 56.19, 182.54 2.32 M1.46 210.62 C51.35 153.3, 98.12 99.35, 182.54 2.32 M1.86 216.27 C65.72 145.91, 122.24 77.6, 188.18 1.93 M1.86 216.27 C72.08 132.41, 143.72 47.79, 188.18 1.93 M1.6 222.66 C54.17 163.36, 106.76 101.21, 193.17 2.29 M1.6 222.66 C76.08 137.28, 147.29 52.71, 193.17 2.29 M1.99 228.31 C79.44 141.72, 154.15 49.68, 198.81 1.9 M1.99 228.31 C70.13 154.74, 136.01 78.92, 198.81 1.9 M1.73 234.71 C69.14 157.43, 136.86 77.35, 203.8 2.26 M1.73 234.71 C46.25 183.29, 92.73 127.45, 203.8 2.26 M1.47 241.1 C76.49 157.08, 145.8 66.85, 209.44 1.86 M1.47 241.1 C51.76 183.47, 102.84 126.74, 209.44 1.86 M1.86 246.75 C46.23 195.05, 89.87 142.11, 214.43 2.22 M1.86 246.75 C65.56 176.2, 125.85 107.62, 214.43 2.22 M1.6 253.14 C71.43 172.38, 145.42 92.78, 220.07 1.83 M1.6 253.14 C87.16 157.45, 170.44 60.49, 220.07 1.83 M2 258.79 C84.77 162.73, 166.15 70.77, 225.06 2.19 M2 258.79 C84.74 166.45, 167.94 67.88, 225.06 2.19 M1.73 265.19 C78.62 180.89, 153.29 98.54, 230.7 1.79 M1.73 265.19 C58.07 196.96, 119.34 127.19, 230.7 1.79 M1.47 271.58 C63.2 201.33, 127.79 124.36, 235.69 2.15 M1.47 271.58 C87.93 171.57, 175.03 69.65, 235.69 2.15 M1.87 277.23 C52.02 219.71, 98.81 161.32, 241.33 1.76 M1.87 277.23 C66.09 204.2, 130.17 129.71, 241.33 1.76 M1.61 283.62 C61.49 220.48, 114.24 158.41, 246.32 2.12 M1.61 283.62 C82.71 192.95, 160.29 103.1, 246.32 2.12 M2 289.27 C87.41 191.88, 173.49 93.57, 251.96 1.72 M2 289.27 C53.74 232.05, 107.02 171.93, 251.96 1.72 M1.74 295.66 C93.39 198.06, 180.43 92.53, 256.95 2.08 M1.74 295.66 C78.3 201.56, 158.78 110.5, 256.95 2.08 M1.48 302.06 C85.79 207.74, 169.65 108.05, 262.59 1.69 M1.48 302.06 C108.18 183.33, 213.42 63.99, 262.59 1.69 M1.87 307.71 C99.56 204.22, 192.47 95.11, 267.58 2.05 M1.87 307.71 C55.98 240.41, 110.61 177.73, 267.58 2.05 M0.95 314.86 C67.82 237.55, 134.78 162.08, 272.56 2.41 M0.95 314.86 C97.51 206.31, 194.94 93.75, 272.56 2.41 M2.01 319.75 C60.07 252.57, 116.54 188.79, 278.21 2.01 M2.01 319.75 C88.59 216.88, 177.62 115.92, 278.21 2.01 M2.4 325.39 C65.69 251.42, 127.32 179.89, 283.19 2.37 M2.4 325.39 C91.39 223.25, 180.91 118.25, 283.19 2.37 M4.11 329.52 C78.45 244.69, 149.46 158.43, 288.84 1.98 M4.11 329.52 C94.56 225.15, 185 119.97, 288.84 1.98 M6.47 332.9 C88.16 232.99, 174.34 136.55, 293.82 2.34 M6.47 332.9 C98.12 228.26, 190.65 121.54, 293.82 2.34 M8.83 336.28 C100.63 226.54, 189.14 125.24, 299.47 1.94 M8.83 336.28 C105.8 219.53, 205.13 107.46, 299.47 1.94 M11.2 339.66 C106.04 231.51, 198.84 125.77, 304.45 2.3 M11.2 339.66 C102.47 237.78, 191.38 136.21, 304.45 2.3 M13.56 343.04 C115.75 226.95, 216.22 106.25, 310.1 1.91 M13.56 343.04 C87.31 253.76, 162.86 165.75, 310.1 1.91 M18.54 343.4 C96.08 254.06, 171.57 165.12, 315.08 2.27 M18.54 343.4 C82.92 264.36, 150.43 186.95, 315.08 2.27 M22.88 344.51 C139.13 209.47, 254.05 73.76, 320.73 1.88 M22.88 344.51 C90.85 268.66, 157.6 192.28, 320.73 1.88 M27.21 345.63 C116.21 239.79, 213.02 132.99, 325.71 2.24 M27.21 345.63 C126.48 227.33, 229 107.83, 325.71 2.24 M32.19 345.99 C112.23 253.95, 192.89 158.24, 331.36 1.84 M32.19 345.99 C135.9 230.92, 238.6 113.88, 331.36 1.84 M37.18 346.35 C150 214.49, 261.7 84.16, 336.34 2.2 M37.18 346.35 C138.83 232.64, 236.86 119.9, 336.34 2.2 M42.82 345.95 C118.97 261.54, 194.4 177.16, 341.99 1.81 M42.82 345.95 C153.61 219.73, 261.13 93.3, 341.99 1.81 M47.81 346.31 C160.57 216.56, 273.79 89.07, 346.97 2.17 M47.81 346.31 C151.04 222.97, 256.94 102.82, 346.97 2.17 M53.45 345.92 C168.67 216.01, 283.84 87.59, 352.62 1.77 M53.45 345.92 C117.67 269.35, 182.48 192.97, 352.62 1.77 M58.44 346.28 C162.14 222.49, 267.99 97.8, 357.6 2.13 M58.44 346.28 C121.59 275.93, 183.03 205.37, 357.6 2.13 M64.08 345.89 C175.69 220.27, 282.9 93.16, 363.25 1.74 M64.08 345.89 C148.95 250.91, 231.06 156.4, 363.25 1.74 M69.07 346.25 C180.97 223.4, 290.39 96.81, 368.23 2.1 M69.07 346.25 C179.18 215.89, 293.06 86.85, 368.23 2.1 M74.71 345.85 C163.47 247.8, 250.17 150.24, 373.88 1.7 M74.71 345.85 C155.98 252.18, 235.07 160.47, 373.88 1.7 M79.7 346.21 C195.87 215.65, 310.17 84.53, 378.86 2.06 M79.7 346.21 C189.82 220.37, 300.19 95, 378.86 2.06 M85.34 345.82 C168.87 247.22, 253.9 149.42, 383.85 2.42 M85.34 345.82 C198.71 212.44, 315.09 79.68, 383.85 2.42 M90.33 346.18 C208.63 208.84, 327.43 75.25, 389.49 2.03 M90.33 346.18 C205.27 210.4, 321.29 77.02, 389.49 2.03 M95.97 345.78 C179.53 247.32, 265.85 149.49, 394.48 2.39 M95.97 345.78 C212.46 214.16, 328.46 82.46, 394.48 2.39 M100.96 346.14 C193.17 238.59, 284.91 131.13, 400.12 1.99 M100.96 346.14 C176.21 263.06, 249.59 178.21, 400.12 1.99 M106.6 345.75 C179.3 259.98, 253.6 170.74, 405.11 2.35 M106.6 345.75 C189.21 256.86, 269.84 164.05, 405.11 2.35 M111.59 346.11 C189.35 256.6, 266.68 167.99, 410.75 1.96 M111.59 346.11 C193.37 252.67, 274.52 158.33, 410.75 1.96 M116.58 346.47 C217.76 233.08, 318.8 116.38, 415.74 2.32 M116.58 346.47 C235.24 207.4, 354.07 70.76, 415.74 2.32 M122.22 346.07 C206.45 246.25, 289.14 147.62, 421.38 1.93 M122.22 346.07 C237.97 209.63, 355.42 75.26, 421.38 1.93 M127.21 346.43 C233.42 225.32, 339.73 101.21, 426.37 2.29 M127.21 346.43 C188.65 278.92, 247.97 211.68, 426.37 2.29 M132.85 346.04 C202.77 261.66, 273.44 181.58, 432.01 1.89 M132.85 346.04 C207.7 257.65, 283 170.83, 432.01 1.89 M137.84 346.4 C226.68 246, 313.64 144.88, 437 2.25 M137.84 346.4 C214.02 258.89, 290.28 172.72, 437 2.25 M143.48 346 C234.92 237.76, 329.2 135.04, 442.64 1.86 M143.48 346 C233.15 244.66, 319.25 143.96, 442.64 1.86 M148.47 346.36 C264.27 211.7, 379.17 79.73, 447.63 2.22 M148.47 346.36 C264.48 207.91, 384.62 71.83, 447.63 2.22 M154.11 345.97 C237.98 252.61, 321.62 156.42, 453.93 1.07 M154.11 345.97 C232.41 255.03, 312.92 161.86, 453.93 1.07 M159.1 346.33 C234.2 259.51, 309.78 169.74, 458.26 2.18 M159.1 346.33 C230.31 269.31, 299.82 190.67, 458.26 2.18 M164.74 345.94 C242.13 254.96, 322.86 165.4, 462.59 3.3 M164.74 345.94 C270.15 225, 373.06 107.92, 462.59 3.3 M169.73 346.3 C282.38 211.45, 394.75 82.1, 467.58 3.66 M169.73 346.3 C286.81 211.04, 406.11 73.53, 467.58 3.66 M175.37 345.9 C291.08 212.76, 405.18 79.08, 471.91 4.77 M175.37 345.9 C291.04 212.24, 407.43 79.24, 471.91 4.77 M180.36 346.26 C251 269.06, 314.69 191.99, 475.59 6.64 M180.36 346.26 C274.23 238.26, 368.34 129.87, 475.59 6.64 M186 345.87 C280.62 235.89, 373.38 128.4, 477.95 10.02 M186 345.87 C271.12 249.06, 354.7 153.56, 477.95 10.02 M190.99 346.23 C278.7 246.14, 362.91 149.69, 480.97 12.64 M190.99 346.23 C271.05 257.16, 346.2 167.35, 480.97 12.64 M196.63 345.83 C281.63 252.19, 364.63 158.21, 482.02 17.53 M196.63 345.83 C258.21 278.04, 318.96 207.32, 482.02 17.53 M201.62 346.19 C277.3 260.17, 354.66 174.55, 483.07 22.42 M201.62 346.19 C272.83 264.64, 344.28 181.17, 483.07 22.42 M207.26 345.8 C285.94 246.31, 370.33 153.4, 484.12 27.31 M207.26 345.8 C312.89 229.75, 414.8 111.7, 484.12 27.31 M212.25 346.16 C289.99 254.28, 372.64 157.71, 485.17 32.2 M212.25 346.16 C313.88 223.58, 417.85 104.66, 485.17 32.2 M217.89 345.76 C309.15 236.31, 401.71 135.25, 484.91 38.6 M217.89 345.76 C287.6 268.8, 356.57 189.01, 484.91 38.6 M222.88 346.12 C306.07 252.75, 389.1 155.25, 485.3 44.24 M222.88 346.12 C299.63 263.95, 372.06 179.04, 485.3 44.24 M228.52 345.73 C313.58 250.67, 398.28 156.82, 485.04 50.64 M228.52 345.73 C328.83 231.28, 424.89 121.04, 485.04 50.64 M233.51 346.09 C310.15 263.25, 388.28 174.71, 485.44 56.28 M233.51 346.09 C298.29 271.57, 363.86 196.16, 485.44 56.28 M238.5 346.45 C331.79 235.4, 430.74 123.69, 485.17 62.68 M238.5 346.45 C326.68 246.04, 413.17 144.57, 485.17 62.68 M244.14 346.05 C294.34 293.26, 343.13 233.27, 484.91 69.08 M244.14 346.05 C330.02 244.96, 422.02 140.49, 484.91 69.08 M249.13 346.41 C333.79 239.77, 423.37 140.17, 485.31 74.72 M249.13 346.41 C298 290.96, 346.53 233.17, 485.31 74.72 M254.77 346.02 C313.81 283.96, 366.35 219.39, 485.05 81.12 M254.77 346.02 C328.99 255.78, 408.72 166.88, 485.05 81.12 M259.76 346.38 C339.84 254.58, 419.95 159.17, 485.44 86.76 M259.76 346.38 C320.37 275.46, 385.74 202.31, 485.44 86.76 M265.4 345.98 C306.04 297.6, 352.85 244.63, 485.18 93.16 M265.4 345.98 C313.98 289.06, 363.65 231.77, 485.18 93.16 M270.39 346.34 C342.29 269.31, 404.03 193.22, 484.92 99.55 M270.39 346.34 C332.77 271.52, 398.72 194.74, 484.92 99.55 M276.03 345.95 C348.76 264.27, 422.2 176.35, 485.31 105.2 M276.03 345.95 C355.4 256.64, 432.78 166.66, 485.31 105.2 M281.02 346.31 C325.38 290.73, 376.54 231.16, 485.05 111.6 M281.02 346.31 C346.26 269.63, 416.41 190.86, 485.05 111.6 M286.66 345.92 C339.47 278.28, 396.93 210.67, 485.45 117.24 M286.66 345.92 C339.26 281.99, 394.75 220.03, 485.45 117.24 M291.65 346.28 C342.27 291.33, 394.57 230.74, 485.18 123.64 M291.65 346.28 C330.5 297.17, 372.81 250.57, 485.18 123.64 M297.29 345.88 C359.33 272.35, 417.91 204.3, 484.92 130.03 M297.29 345.88 C343.66 286.51, 395.02 227.12, 484.92 130.03 M302.28 346.24 C357.03 276.55, 414.21 211.53, 485.32 135.68 M302.28 346.24 C365.11 277.77, 422.95 209.04, 485.32 135.68 M307.92 345.85 C361.77 282.79, 420.77 219.79, 485.06 142.08 M307.92 345.85 C349.7 295.47, 395.5 242.04, 485.06 142.08 M312.91 346.21 C358.57 296.77, 404.26 246.09, 485.45 147.72 M312.91 346.21 C353.7 300.78, 388.98 256.14, 485.45 147.72 M318.55 345.81 C373.13 277.66, 431.41 207.61, 485.19 154.12 M318.55 345.81 C357.24 301.55, 394.15 261.55, 485.19 154.12 M323.54 346.17 C375.91 282.03, 433.34 222.19, 484.93 160.51 M323.54 346.17 C387.8 272.79, 453.12 199.76, 484.93 160.51 M329.18 345.78 C383.72 280.33, 440.51 217.22, 485.32 166.16 M329.18 345.78 C371.72 301.37, 412.27 254.73, 485.32 166.16 M334.17 346.14 C390.5 286.18, 442.69 224.02, 485.06 172.55 M334.17 346.14 C385.35 291.23, 435.63 232.61, 485.06 172.55 M339.81 345.74 C378.04 294.08, 420.63 249.78, 485.46 178.2 M339.81 345.74 C394.9 281.5, 445.45 222.65, 485.46 178.2 M344.8 346.1 C390.21 294.69, 430.85 243.76, 485.19 184.6 M344.8 346.1 C377.73 310.99, 407.61 275.49, 485.19 184.6 M349.78 346.46 C380.85 305.15, 420.51 269.28, 484.93 190.99 M349.78 346.46 C384.29 302.22, 421.16 262.6, 484.93 190.99 M355.43 346.07 C399.62 295.52, 448.02 247.26, 485.33 196.64 M355.43 346.07 C390.6 302.42, 425.25 261.71, 485.33 196.64 M360.41 346.43 C390.61 310.15, 425.03 277.29, 485.07 203.03 M360.41 346.43 C404.93 294.63, 450.95 241.22, 485.07 203.03 M366.06 346.03 C406.49 295.99, 448 251.92, 485.46 208.68 M366.06 346.03 C413.74 291.85, 459.43 240.37, 485.46 208.68 M371.04 346.39 C401.78 316.98, 430.17 283.96, 485.2 215.07 M371.04 346.39 C396.29 316.71, 419.19 288.41, 485.2 215.07 M376.69 346 C406.01 319.51, 429.71 292.82, 484.94 221.47 M376.69 346 C409.22 309.06, 440.24 271.31, 484.94 221.47 M381.67 346.36 C408.93 318.08, 433.21 285.19, 485.33 227.12 M381.67 346.36 C402.17 318.34, 427.93 289.8, 485.33 227.12 M387.32 345.97 C406.51 321.67, 435.27 300.46, 485.07 233.51 M387.32 345.97 C410.64 321.23, 432.85 294.97, 485.07 233.51 M392.3 346.33 C416.66 313.54, 442.65 282.86, 485.47 239.16 M392.3 346.33 C426.98 310.39, 458.32 273.94, 485.47 239.16 M397.95 345.93 C423.28 314.28, 450.96 281.94, 485.2 245.55 M397.95 345.93 C431.55 305.58, 469.75 263.94, 485.2 245.55 M402.93 346.29 C439.24 308.86, 464.23 279.82, 484.94 251.95 M402.93 346.29 C418.79 322.57, 441.12 302.4, 484.94 251.95 M408.58 345.9 C432.87 316.7, 464.97 277.26, 485.34 257.6 M408.58 345.9 C435.65 314.01, 463.81 280.63, 485.34 257.6 M413.57 346.26 C440.25 317.69, 472.41 286.5, 485.08 263.99 M413.57 346.26 C431.34 324.63, 448.59 306.24, 485.08 263.99 M419.21 345.86 C436.49 328.8, 448 306.68, 485.47 269.64 M419.21 345.86 C435.64 324.51, 453.46 304.1, 485.47 269.64 M424.2 346.22 C445.01 320.55, 468.33 295.76, 485.21 276.03 M424.2 346.22 C439.48 328.48, 453.13 315.22, 485.21 276.03 M429.84 345.83 C444.66 330.19, 460.34 309.99, 484.95 282.43 M429.84 345.83 C451.09 320.18, 472.42 298.12, 484.95 282.43 M434.83 346.19 C447.43 331.3, 460.19 321.72, 485.34 288.07 M434.83 346.19 C444.86 333.31, 457.82 320.23, 485.34 288.07 M440.47 345.79 C449 332.9, 456.81 320.66, 485.08 294.47 M440.47 345.79 C456.04 328.18, 473.04 311.97, 485.08 294.47 M445.46 346.15 C458.16 335.86, 463.39 324.39, 485.47 300.12 M445.46 346.15 C454.14 336.97, 462.1 327.13, 485.47 300.12 M451.1 345.76 C462.18 338.65, 470.28 323.57, 485.21 306.51 M451.1 345.76 C462.25 331.24, 473.26 317.9, 485.21 306.51 M454.77 347.63 C465.35 336.13, 474.47 320.08, 484.95 312.91 M454.77 347.63 C462.68 340.31, 467.62 331.79, 484.95 312.91 M461.73 345.72 C474.2 336.16, 483.68 320.53, 487.31 316.29 M461.73 345.72 C470.82 334.78, 478.5 322.43, 487.31 316.29 M468.03 344.57 C477.07 335.05, 484.26 327.72, 485.74 324.2 M468.03 344.57 C470.09 340.65, 477.06 334.42, 485.74 324.2" stroke="#12b886" stroke-width="0.5" fill="none"></path><path d="M32 0 M32 0 C145.03 5.56, 257.49 4.64, 453 0 M32 0 C163.15 4.54, 294.79 4.24, 453 0 M453 0 C474.04 -2.05, 486.69 7.51, 485 32 M453 0 C478.19 -1.23, 480.49 11.7, 485 32 M485 32 C488.33 126.06, 491.43 221.79, 485 314 M485 32 C481.11 124.23, 483.67 218.6, 485 314 M485 314 C487.72 333.39, 472.09 345.61, 453 346 M485 314 C488.44 336.22, 470.47 347.66, 453 346 M453 346 C329.87 346.09, 203.31 343.53, 32 346 M453 346 C361.61 345.94, 269.36 345.55, 32 346 M32 346 C12.78 342.29, 2.83 338.91, 0 314 M32 346 C10.33 341.57, -0.65 337.03, 0 314 M0 314 C-1.75 253.51, -3.72 191.49, 0 32 M0 314 C0.97 207.89, 1.07 102.81, 0 32 M0 32 C-1.33 11.31, 11.69 3.02, 32 0 M0 32 C-1.35 8.01, 11.66 -4.46, 32 0" stroke="#000000" stroke-width="1" fill="none"></path></g><g stroke-linecap="round"><g transform="translate(166.0025703576207 95) rotate(0 -75.69002048026772 86.62056262008844)"><path d="M-1.98 -2.23 C-27.67 27.43, -128.93 146.06, -153.52 175.47 M2.14 2.73 C-22.76 31.7, -123.05 141.68, -148.49 170.71" stroke="#000000" stroke-width="1" fill="none"></path></g></g><mask></mask><g stroke-linecap="round"><g transform="translate(345.6925908378885 98.37943737991168) rotate(0 74.50887870337812 102.94389076624066)"><path d="M-0.22 0.4 C25.57 34.78, 127.5 173.57, 152.81 207.74 M-3.79 -1.85 C21.78 31.59, 124.99 168.66, 150.46 203.67" stroke="#000000" stroke-width="1" fill="none"></path></g></g><mask></mask><g stroke-linecap="round" transform="translate(324.5025703576207 78.5) rotate(0 18.5 17.5)"><path d="M24.44 0.86 C28.01 2.03, 32.41 5.78, 34.33 9.21 C36.24 12.63, 36.71 17.84, 35.94 21.42 C35.16 25.01, 32.75 28.61, 29.65 30.71 C26.55 32.82, 21.18 33.95, 17.33 34.05 C13.48 34.15, 9.34 33.66, 6.55 31.3 C3.76 28.93, 1.1 23.64, 0.6 19.86 C0.11 16.07, 1.73 11.68, 3.59 8.59 C5.45 5.5, 7.66 2.38, 11.75 1.34 C15.84 0.3, 25.1 1.94, 28.15 2.34 C31.19 2.75, 30.2 3.5, 30.05 3.77 M13.02 1.76 C16.44 0.51, 21.45 0.09, 24.98 1.32 C28.51 2.56, 32.27 5.55, 34.19 9.16 C36.12 12.78, 37.46 19.11, 36.51 23.02 C35.56 26.92, 31.84 30.82, 28.47 32.58 C25.1 34.34, 19.94 33.85, 16.29 33.57 C12.63 33.28, 9.22 33.52, 6.54 30.87 C3.86 28.23, 0.72 21.43, 0.23 17.69 C-0.27 13.95, 1.17 11.41, 3.56 8.42 C5.94 5.42, 13.05 0.91, 14.53 -0.27 C16.01 -1.46, 12.62 0.81, 12.43 1.29" stroke="#000000" stroke-width="1" fill="none"></path></g><g transform="translate(281.5025703576207 48) rotate(0 44 13)"><text x="0" y="18" font-family="Virgil, Segoe UI Emoji" font-size="20px" fill="#000000" text-anchor="start" style="white-space: pre;" direction="ltr">source 2</text></g><g stroke-linecap="round"><g transform="translate(11.002570357620698 269) rotate(0 33.519302393086264 43.99108189135791)"><path d="M1.58 0.02 C12.66 14.17, 57.41 73.17, 68.04 87.57 M-1 -2.43 C9.65 13.26, 55.75 75.33, 66.37 90.42" stroke="#000000" stroke-width="1" fill="none"></path></g></g><mask></mask><g stroke-linecap="round"><g transform="translate(75.0025703576207 354) rotate(0 90.17244326379151 -64.23664467446508)"><path d="M1.2 1.77 C31.33 -20.15, 152.49 -107.97, 181.94 -130.24 M-1.59 0.26 C28.24 -21.32, 149.89 -105.08, 180.75 -126.74" stroke="#000000" stroke-width="1" fill="none"></path></g></g><mask></mask><g stroke-linecap="round"><g transform="translate(495.0025703576207 303) rotate(0 -25.987887909151596 26.27289547502994)"><path d="M0.73 -0.57 C-7.36 8.37, -41.82 44.26, -49.95 53.23 M-2.32 -3.35 C-10.73 5.95, -44.86 46.11, -52.7 55.9" stroke="#000000" stroke-width="1" fill="none"></path></g></g><mask></mask><g stroke-linecap="round"><g transform="translate(439.0025703576207 356) rotate(0 -95.3611619211361 -65.32215410955246)"><path d="M1.29 0.86 C-30.16 -21.25, -157.19 -110.3, -189.15 -131.5 M-1.46 -1.14 C-33.34 -23.1, -161.43 -107.68, -192.01 -129.23" stroke="#000000" stroke-width="1" fill="none"></path></g></g><mask></mask></svg>